<svg id="Logo" xmlns="http://www.w3.org/2000/svg" viewBox="0 0 2000 2000"><defs><style>.cls-1{fill:#fff;}.cls-2{fill:none;stroke:#000;stroke-linecap:round;stroke-linejoin:round;stroke-width:20px;}</style></defs><title>manuel paglia</title><rect class="cls-1" width="2000" height="2000"/><path d="M704,1311.58H723l7.29,28.31,7.24-28.31h18.9v46.53H744.6v-35.49l-9.07,35.49H724.87l-9-35.49v35.49H704Z"/><path d="M794.15,1350.43H777.83l-2.27,7.68H760.88l17.49-46.53h15.68l17.49,46.53H796.48Zm-3-10.06L786,1323.64,781,1340.37Z"/><path d="M816.2,1311.58h13.43l17.52,25.74v-25.74H860.7v46.53H847.15l-17.43-25.55v25.55H816.2Z"/><path d="M900.53,1311.58h14.35v27.72a23.28,23.28,0,0,1-1.29,7.79,16.73,16.73,0,0,1-4,6.4,16.09,16.09,0,0,1-5.76,3.86,29.14,29.14,0,0,1-10.06,1.55,64.91,64.91,0,0,1-7.41-.47,19.45,19.45,0,0,1-6.71-1.89,16.82,16.82,0,0,1-4.94-4,14.8,14.8,0,0,1-3.06-5.36,27.77,27.77,0,0,1-1.33-7.87v-27.72h14.34V1340a8.1,8.1,0,0,0,2.11,6,9.09,9.09,0,0,0,11.68,0,8.08,8.08,0,0,0,2.11-6Z"/><path d="M924.37,1311.58H962.9v9.93H938.78v7.4h22.37v9.49H938.78v9.17H963.6v10.54H924.37Z"/><path d="M971.34,1311.58h14.38v35.07h22.44v11.46H971.34Z"/><path d="M1036.31,1311.58h23.9q7.8,0,11.69,3.71t3.89,10.57q0,7-4.24,11t-12.93,4h-7.87v17.27h-14.44Zm14.44,19.84h3.52q4.15,0,5.84-1.45a4.65,4.65,0,0,0,1.68-3.7,5.14,5.14,0,0,0-1.46-3.71q-1.45-1.51-5.49-1.52h-4.09Z"/><path d="M1106.4,1350.43h-16.33l-2.26,7.68h-14.68l17.48-46.53h15.69l17.48,46.53h-15.06Zm-3-10.06-5.13-16.73-5.08,16.73Z"/><path d="M1150.57,1341.25v-9.68h22.21v19.84a45.49,45.49,0,0,1-11.28,5.92,38.23,38.23,0,0,1-11.63,1.57q-8.28,0-13.51-2.82a19.36,19.36,0,0,1-8.09-8.41,27.62,27.62,0,0,1-2.87-12.83,26.85,26.85,0,0,1,3.14-13.25,20.37,20.37,0,0,1,9.2-8.55q4.74-2.25,12.73-2.25,7.71,0,11.54,1.39a15,15,0,0,1,6.35,4.34,19.22,19.22,0,0,1,3.79,7.44l-13.87,2.47a7.5,7.5,0,0,0-2.91-4,9.05,9.05,0,0,0-5.22-1.39,9.39,9.39,0,0,0-7.53,3.28q-2.82,3.29-2.81,10.4,0,7.55,2.84,10.79a10,10,0,0,0,7.92,3.23,15.25,15.25,0,0,0,4.6-.69,24.64,24.64,0,0,0,5-2.39v-4.38Z"/><path d="M1181.32,1311.58h14.38v35.07h22.44v11.46h-36.82Z"/><path d="M1225.25,1311.58h14.41v46.53h-14.41Z"/><path d="M1278.58,1350.43h-16.33l-2.27,7.68H1245.3l17.49-46.53h15.68l17.49,46.53H1280.9Zm-3-10.06-5.13-16.73-5.08,16.73Z"/><polyline class="cls-2" points="754.79 1154.6 782.57 1154.6 782.57 1010.74 926.43 1154.6 926.43 1010.74 954.93 1010.74"/><path class="cls-2" d="M854.5,723a71.93,71.93,0,1,0-143.85,0v503.49h71.92"/><path class="cls-2" d="M854.5,866.88V723a71.93,71.93,0,0,1,143.86,0V1154.6a71.92,71.92,0,0,0,71.93,71.92h215.78V1010.74"/><path class="cls-2" d="M782.57,795v71.92a71.93,71.93,0,1,0,143.86,0V795"/><line class="cls-2" x1="710.65" y1="723.03" x2="998.36" y2="723.03"/><path class="cls-2" d="M998.36,723a71.92,71.92,0,0,1,71.93-71.93h143.85A71.92,71.92,0,0,1,1286.07,723V866.88a71.92,71.92,0,0,1-71.93,71.93H998.36"/><polyline class="cls-2" points="1214.14 723.03 1070.29 723.03 1070.29 866.88 1214.14 866.88 1214.14 794.96 1142.21 794.96"/><path class="cls-2" d="M1214.14,1010.74H1070.29v112.43a31.43,31.43,0,0,0,31.42,31.43h112.43"/><line class="cls-2" x1="1070.29" y1="1082.67" x2="1214.14" y2="1082.67"/><path d="M1286.07,977.6a13.24,13.24,0,0,1-2.59-.27,12.13,12.13,0,0,1-2.49-.76,13,13,0,0,1-2.3-1.22,12.77,12.77,0,0,1-2-1.65,12.37,12.37,0,0,1-1.64-2,13.23,13.23,0,0,1-1.23-2.29,13.48,13.48,0,0,1-.75-2.49,12.56,12.56,0,0,1,0-5.18,13.15,13.15,0,0,1,.75-2.48,13.32,13.32,0,0,1,1.23-2.3,12.81,12.81,0,0,1,1.64-2,13.35,13.35,0,0,1,2-1.65,12.35,12.35,0,0,1,2.3-1.22,13.54,13.54,0,0,1,2.49-.77,13.33,13.33,0,0,1,5.19,0,14,14,0,0,1,2.49.77,13.44,13.44,0,0,1,4.3,2.87,13.52,13.52,0,0,1,1.66,2,12.63,12.63,0,0,1,1.22,2.3,12.48,12.48,0,0,1,.76,2.48,13.54,13.54,0,0,1,0,5.18,12.78,12.78,0,0,1-.76,2.49,12.54,12.54,0,0,1-1.22,2.29,13,13,0,0,1-1.66,2,12.34,12.34,0,0,1-2,1.65,13.52,13.52,0,0,1-2.28,1.22,12.52,12.52,0,0,1-2.49.76A13.5,13.5,0,0,1,1286.07,977.6Z"/></svg>