<?xml version="1.0" standalone="no"?>
<!DOCTYPE svg PUBLIC "-//W3C//DTD SVG 20010904//EN"
 "http://www.w3.org/TR/2001/REC-SVG-20010904/DTD/svg10.dtd">
<svg version="1.0" xmlns="http://www.w3.org/2000/svg"
 width="8334.000000pt" height="8334.000000pt" viewBox="0 0 8334.000000 8334.000000"
 preserveAspectRatio="xMidYMid meet">

<g transform="translate(0.000000,8334.000000) scale(0.100000,-0.100000)"
fill="#000000" stroke="none">
<path d="M32410 56624 c-867 -63 -1619 -402 -2216 -998 -550 -550 -870 -1211
-981 -2026 -16 -117 -17 -792 -21 -10750 -2 -7912 0 -10640 9 -10685 25 -137
112 -249 236 -308 l68 -32 1580 -3 c1558 -2 1581 -2 1646 18 117 35 206 115
261 235 20 43 23 66 23 160 0 98 -3 116 -27 167 -54 115 -141 192 -257 229
-61 18 -103 19 -1382 19 l-1319 0 0 10075 0 10075 2580 0 2580 0 2 -2843 3
-2843 38 -76 c104 -211 341 -292 556 -191 66 31 150 112 181 174 52 102 50
-60 50 2962 l0 2817 2580 0 2580 0 3 -8927 2 -8928 22 -145 c64 -432 166 -761
349 -1120 490 -963 1413 -1639 2479 -1815 83 -13 202 -29 265 -35 77 -7 1652
-10 4731 -10 4575 0 4617 0 4681 20 124 38 223 135 268 262 20 58 20 70 18
4646 l-3 4587 -33 68 c-43 86 -113 156 -199 199 -64 31 -73 33 -173 33 -133
-1 -195 -23 -280 -101 -67 -62 -101 -115 -124 -193 -15 -50 -16 -433 -16
-4373 l0 -4318 -4402 3 c-4785 3 -4437 -1 -4703 53 -731 148 -1390 644 -1748
1315 -132 247 -210 477 -270 794 l-21 110 -3 4443 -3 4442 4392 0 c4730 0
4496 -2 4782 50 1266 230 2297 1151 2665 2380 47 157 83 320 114 510 l21 135
4 3245 c2 2376 0 3281 -8 3380 -37 437 -176 914 -377 1290 -502 942 -1380
1584 -2423 1774 -293 53 -135 51 -3610 51 -3070 0 -3242 -1 -3375 -18 -669
-87 -1242 -327 -1750 -733 -141 -113 -406 -378 -519 -519 -91 -113 -262 -364
-306 -448 -14 -26 -28 -47 -32 -47 -3 0 -23 30 -44 67 -179 321 -500 695 -809
943 -521 417 -1119 664 -1800 742 -143 16 -548 16 -695 -1 -927 -104 -1746
-553 -2324 -1276 -81 -102 -251 -353 -295 -437 l-25 -46 -71 117 c-145 240
-277 410 -475 614 -570 588 -1273 933 -2095 1027 -97 11 -465 20 -555 14z
m585 -858 c973 -156 1770 -834 2068 -1762 34 -105 87 -324 87 -358 0 -15 -199
-16 -2545 -16 -1400 0 -2545 2 -2545 5 0 3 11 58 25 123 105 489 339 915 700
1277 414 416 927 666 1512 740 145 19 559 13 698 -9z m5906 9 c830 -97 1550
-581 1963 -1321 107 -193 204 -447 251 -662 14 -64 28 -127 30 -139 l5 -23
-2546 0 -2547 0 7 50 c4 28 21 106 37 173 110 436 353 862 679 1187 132 131
238 217 405 328 326 217 712 360 1102 407 150 18 461 18 614 0z m11989 0 c758
-89 1424 -499 1854 -1144 86 -128 217 -387 271 -535 43 -118 97 -325 119 -456
37 -223 37 -292 33 -3515 l-3 -3160 -22 -128 c-40 -241 -92 -424 -179 -627
-240 -565 -686 -1035 -1238 -1305 -299 -146 -576 -224 -910 -255 -73 -7 -1581
-10 -4452 -10 l-4343 0 0 4383 c0 3880 2 4397 15 4507 39 314 125 589 274 875
373 719 1075 1227 1872 1354 68 11 142 22 164 24 22 2 1476 4 3230 5 2747 2
3207 0 3315 -13z"/>
<path d="M44490 53616 c-138 -38 -243 -138 -289 -274 l-21 -62 2 -3082 3
-3083 32 -68 c58 -121 168 -208 301 -236 71 -15 6064 -16 6143 -1 169 32 307
170 339 340 14 76 14 3056 -1 3136 -29 155 -130 274 -277 323 -62 21 -65 21
-1650 19 l-1587 -3 -65 -31 c-139 -66 -218 -172 -240 -324 -22 -156 64 -333
204 -415 97 -57 45 -55 1473 -55 l1313 0 0 -1080 0 -1080 -2580 0 -2580 0 0
2580 0 2580 2843 2 2843 3 76 38 c324 160 305 622 -32 760 l-55 22 -3075 2
c-2423 1 -3085 -1 -3120 -11z"/>
<path d="M32472 50611 c-71 -27 -108 -51 -164 -108 -53 -55 -93 -127 -108
-199 -7 -34 -10 -572 -7 -1714 4 -1820 0 -1711 62 -2030 172 -879 691 -1663
1435 -2166 433 -293 907 -476 1438 -555 176 -27 594 -37 779 -20 1050 98 1973
652 2553 1533 284 430 456 901 537 1463 15 108 17 280 20 1774 3 1180 1 1669
-7 1707 -28 132 -131 259 -247 305 -86 33 -209 37 -292 9 -150 -50 -251 -168
-280 -324 -8 -42 -11 -543 -11 -1653 0 -1047 -4 -1627 -11 -1691 -63 -584
-326 -1131 -743 -1547 -207 -206 -421 -358 -691 -491 -340 -166 -656 -246
-1040 -261 -721 -27 -1409 246 -1925 766 -357 360 -595 807 -695 1306 -49 247
-48 215 -54 1960 l-6 1650 -32 67 c-41 88 -113 160 -201 201 -58 27 -80 32
-162 34 -75 3 -106 -1 -148 -16z"/>
<path d="M53505 43710 c-75 -14 -162 -46 -216 -81 -63 -40 -157 -141 -192
-206 -35 -66 -67 -190 -67 -263 0 -73 32 -197 67 -263 16 -28 56 -81 91 -118
145 -154 364 -210 567 -145 243 78 395 300 382 556 -14 282 -230 502 -512 523
-38 3 -92 1 -120 -3z"/>
<path d="M32478 41621 c-31 -10 -72 -28 -91 -40 -48 -29 -121 -110 -148 -162
-51 -101 -49 59 -49 -2956 l0 -2813 -393 0 c-428 0 -466 -4 -557 -57 -145 -86
-231 -267 -202 -426 25 -134 119 -259 234 -312 94 -43 156 -46 804 -43 596 3
610 4 666 25 115 43 190 112 242 223 l31 65 3 2550 2 2550 2673 -2671 c2361
-2361 2678 -2675 2728 -2697 114 -53 244 -53 357 -2 65 30 150 110 185 173 61
112 57 -99 57 2974 l0 2808 414 0 c386 0 418 1 479 20 173 54 289 212 289 395
0 172 -87 307 -248 382 l-59 28 -700 0 -700 0 -59 -28 c-113 -52 -185 -130
-229 -245 l-22 -57 -3 -2530 -2 -2530 -2668 2666 c-2563 2562 -2670 2667
-2732 2694 -86 38 -215 45 -302 16z"/>
<path d="M44468 41621 c-31 -10 -72 -28 -91 -40 -59 -36 -143 -135 -169 -198
l-23 -58 0 -2495 0 -2495 23 -113 c49 -243 155 -492 290 -682 86 -122 281
-316 402 -403 113 -80 339 -194 468 -236 127 -42 270 -70 415 -81 175 -14
4782 -13 4867 1 136 22 262 114 315 231 103 228 3 471 -235 574 -44 19 -103
19 -2515 24 l-2470 5 -73 23 c-328 101 -550 333 -639 663 -15 57 -17 145 -20
767 l-4 702 2805 0 c2040 0 2819 3 2858 11 214 46 364 260 328 468 -6 36 -22
90 -35 119 -30 66 -110 150 -175 186 -108 59 66 56 -2982 56 l-2798 0 0 1080
0 1080 2838 2 2837 3 55 22 c183 75 293 269 260 454 -26 140 -103 245 -228
306 l-76 38 -3085 2 c-2957 2 -3088 1 -3143 -16z"/>
<path d="M47769 28720 c-106 -10 -237 -38 -318 -69 -128 -48 -291 -175 -376
-291 -200 -273 -244 -743 -102 -1090 88 -214 212 -351 402 -446 152 -75 304
-104 547 -104 168 0 315 18 446 56 99 28 310 129 425 203 l77 51 0 415 0 415
-465 0 -465 0 0 -205 0 -205 200 0 200 0 0 -90 0 -89 -92 -46 c-131 -63 -198
-78 -333 -73 -131 5 -195 29 -275 104 -101 94 -142 228 -142 464 0 166 16 259
61 356 74 157 242 241 431 214 119 -17 196 -69 246 -165 23 -44 33 -55 49 -51
11 2 140 26 288 52 147 26 267 51 267 56 0 25 -66 174 -102 229 -106 165 -261
259 -483 294 -117 18 -364 26 -486 15z"/>
<path d="M29330 27720 l0 -970 250 0 250 0 1 723 0 722 159 -620 c87 -341 171
-666 186 -722 l27 -103 222 0 c222 0 223 0 229 23 3 12 86 335 183 717 l178
695 3 -717 2 -718 250 0 250 0 0 970 0 970 -397 -2 -398 -3 -147 -573 c-80
-316 -148 -575 -150 -578 -3 -2 -72 257 -154 576 l-149 580 -397 0 -398 0 0
-970z"/>
<path d="M32425 28678 c-14 -39 -698 -1859 -710 -1890 l-15 -38 308 0 309 0
33 113 c18 61 39 133 47 160 l14 47 339 0 339 0 26 -87 c15 -49 36 -121 48
-160 l22 -73 313 0 c173 0 312 4 312 9 0 5 -158 429 -351 942 -193 514 -356
946 -361 962 l-10 27 -329 0 c-255 0 -331 -3 -334 -12z m435 -846 c56 -184
100 -336 97 -338 -2 -2 -96 -3 -209 -2 l-205 3 98 325 c108 355 108 355 113
349 2 -2 49 -154 106 -337z"/>
<path d="M34010 27720 l0 -970 280 0 280 0 0 526 c0 300 4 523 9 520 5 -3 168
-240 362 -526 l354 -519 288 -1 287 0 0 970 0 970 -285 0 -285 0 -2 -532 -3
-532 -360 529 -361 530 -282 3 -282 2 0 -970z"/>
<path d="M36260 28076 c0 -662 1 -682 56 -863 60 -200 242 -380 449 -443 190
-57 607 -66 797 -17 128 34 223 85 312 168 122 114 191 239 227 414 17 82 19
144 19 723 l0 632 -300 0 -300 0 0 -618 c0 -684 -1 -694 -63 -780 -65 -90
-201 -136 -334 -112 -36 6 -82 19 -102 30 -51 26 -106 86 -133 145 l-23 50 -3
643 -3 642 -299 0 -300 0 0 -614z"/>
<path d="M38510 27720 l0 -970 820 0 820 0 0 220 0 220 -515 0 -515 0 0 190 0
190 465 0 465 0 0 200 0 200 -465 0 -465 0 0 150 0 150 500 0 500 0 0 210 0
210 -805 0 -805 0 0 -970z"/>
<path d="M40470 27720 l0 -970 770 0 770 0 0 240 0 240 -470 0 -470 0 0 730 0
730 -300 0 -300 0 0 -970z"/>
<path d="M43180 27720 l0 -970 300 0 300 0 0 359 0 359 258 5 c219 4 269 7
339 25 232 60 370 193 429 412 23 89 24 282 1 370 -53 200 -177 325 -382 386
-54 16 -121 18 -652 21 l-593 4 0 -971z m962 538 c111 -66 130 -239 37 -325
-50 -45 -95 -57 -251 -61 l-148 -4 0 212 0 212 158 -4 c150 -3 159 -4 204 -30z"/>
<path d="M45435 28678 c-14 -39 -698 -1859 -710 -1890 l-15 -38 308 0 309 0
33 113 c18 61 39 133 47 160 l14 47 339 0 339 0 26 -87 c15 -49 36 -121 48
-160 l22 -73 313 0 c171 0 312 4 312 9 0 5 -158 429 -351 942 -193 514 -356
946 -361 962 l-10 27 -329 0 c-255 0 -331 -3 -334 -12z m435 -846 c56 -184
100 -336 97 -338 -2 -2 -96 -3 -209 -2 l-205 3 98 325 c108 355 108 355 113
349 2 -2 49 -154 106 -337z"/>
<path d="M49220 27720 l0 -970 770 0 770 0 0 240 0 240 -470 0 -470 0 0 730 0
730 -300 0 -300 0 0 -970z"/>
<path d="M51050 27720 l0 -970 300 0 300 0 0 970 0 970 -300 0 -300 0 0 -970z"/>
<path d="M52252 27727 c-199 -530 -362 -967 -362 -970 0 -4 137 -7 305 -7
l304 0 30 98 c16 53 38 125 47 160 l17 62 340 -2 340 -3 13 -40 c7 -22 29 -93
49 -157 l36 -118 314 0 c173 0 315 1 315 3 0 1 -164 436 -363 967 l-363 965
-330 3 -330 2 -362 -963z m792 104 c53 -172 96 -320 96 -327 0 -11 -38 -14
-205 -14 -113 0 -205 3 -205 8 0 4 45 155 100 337 55 181 100 331 100 334 1
21 29 -62 114 -338z"/>
</g>
</svg>
