<?xml version="1.0" encoding="UTF-8" standalone="no"?>
<svg
   xmlns:dc="http://purl.org/dc/elements/1.1/"
   xmlns:cc="http://creativecommons.org/ns#"
   xmlns:rdf="http://www.w3.org/1999/02/22-rdf-syntax-ns#"
   xmlns:svg="http://www.w3.org/2000/svg"
   xmlns="http://www.w3.org/2000/svg"
   xmlns:sodipodi="http://sodipodi.sourceforge.net/DTD/sodipodi-0.dtd"
   xmlns:inkscape="http://www.inkscape.org/namespaces/inkscape"
   version="1.0"
   width="8334.000000pt"
   height="8334.000000pt"
   viewBox="0 0 8334.000000 8334.000000"
   preserveAspectRatio="xMidYMid meet"
   id="svg291"
   sodipodi:docname="manuelpaglia.svg"
   inkscape:version="1.0.2-2 (e86c870879, 2021-01-15)">
  <defs
     id="defs295" />
  <sodipodi:namedview
     pagecolor="#ffffff"
     bordercolor="#666666"
     borderopacity="1"
     objecttolerance="10"
     gridtolerance="10"
     guidetolerance="10"
     inkscape:pageopacity="0"
     inkscape:pageshadow="2"
     inkscape:window-width="1920"
     inkscape:window-height="1001"
     id="namedview293"
     showgrid="false"
     showborder="false"
     inkscape:zoom="0.074694024"
     inkscape:cx="6444.0675"
     inkscape:cy="3619.2097"
     inkscape:window-x="-9"
     inkscape:window-y="-9"
     inkscape:window-maximized="1"
     inkscape:current-layer="svg291"
     inkscape:document-rotation="0" />
  <metadata
     id="metadata251">
Created by potrace 1.16, written by Peter Selinger 2001-2019
<rdf:RDF>
  <cc:Work
     rdf:about="">
    <dc:format>image/svg+xml</dc:format>
    <dc:type
       rdf:resource="http://purl.org/dc/dcmitype/StillImage" />
    <dc:title></dc:title>
  </cc:Work>
</rdf:RDF>
</metadata>
  <g
     transform="translate(0.000000,8334.000000) scale(0.100000,-0.100000)"
     fill="#000000"
     stroke="none"
     id="g289"
     style="fill:#800080">
    <path
       d="M32310 56620 c-1047 -99 -1964 -642 -2542 -1503 -309 -460 -494 -968 -560 -1537 -11 -95 -13 -1945 -13 -10775 0 -10304 1 -10662 18 -10712 40 -113 131 -205 256 -255 l56 -23 1525 -3 c1019 -2 1552 1 1605 8 194 25 335 161 367 354 29 174 -68 359 -231 439 l-66 32 -1347 3 -1348 2 0 10070 0 10070 2575 0 2575 0 0 -2787 c0 -1869 4 -2809 10 -2852 35 -214 226 -365 442 -348 136 10 246 72 317 178 77 116 71 -157 71 2986 l0 2823 2580 0 2580 0 3 -8937 c2 -8327 4 -8946 20 -9052 120 -814 447 -1469 1009 -2017 606 -592 1367 -920 2232 -964 264 -13 9107 -13 9201 0 182 26 326 166 355 347 14 80 13 9047 0 9128 -14 86 -60 173 -125 234 -223 211 -586 123 -686 -166 -19 -55 -19 -127 -19 -4385 l0 -4328 -4387 3 c-4097 3 -4396 4 -4507 20 -594 87 -1089 330 -1497 737 -397 396 -635 865 -736 1450 -17 100 -18 319 -20 4523 l-3 4417 4322 0 c2841 0 4373 4 4468 10 476 34 895 147 1310 354 973 486 1661 1417 1839 2488 48 285 46 166 46 3568 0 3402 2 3262 -46 3560 -107 673 -436 1321 -923 1819 -486 496 -1091 827 -1756 961 -350 71 -33 65 -3670 65 -2668 0 -3296 -2 -3390 -13 -788 -92 -1487 -428 -2040 -982 -210 -209 -429 -493 -546 -707 -16 -29 -32 -53 -36 -53 -3 0 -23 30 -44 67 -98 175 -281 422 -445 600 -441 476 -1034 830 -1654 987 -270 68 -475 95 -770 103 -846 21 -1639 -256 -2285 -798 -284 -238 -561 -565 -745 -880 l-51 -88 -38 67 c-139 243 -327 486 -545 702 -550 548 -1216 874 -1992 976 -146 19 -577 27 -719 14z m660 -855 c451 -70 848 -237 1200 -505 429 -326 759 -808 910 -1325 24 -81 70 -280 70 -301 0 -2 -1143 -4 -2540 -4 l-2540 0 0 23 c0 41 47 230 90 360 214 658 691 1206 1315 1512 295 144 581 224 930 259 92 9 465 -3 565 -19z m5988 1 c305 -46 582 -136 842 -273 236 -126 419 -262 621 -463 272 -272 469 -577 599 -930 42 -117 102 -336 115 -422 l7 -48 -2542 0 -2542 0 7 43 c34 202 119 456 225 672 235 479 602 864 1076 1129 264 147 617 261 914 295 52 6 109 13 125 15 66 9 456 -4 553 -18z m11987 2 c600 -100 1068 -337 1475 -747 395 -398 637 -891 727 -1481 16 -107 17 -327 21 -3210 2 -2120 0 -3146 -8 -3257 -24 -366 -104 -669 -260 -988 -333 -679 -962 -1186 -1695 -1366 -66 -16 -181 -39 -255 -51 l-135 -23 -4397 -2 -4398 -3 0 4362 c0 4770 -4 4466 56 4753 78 370 274 779 519 1080 94 116 285 305 400 396 383 304 859 497 1345 548 48 5 1500 8 3295 7 2939 -1 3218 -3 3310 -18z"
       id="path253"
       style="fill:#800080" />
    <path
       d="M44475 53616 c-137 -44 -237 -140 -279 -271 -15 -46 -16 -313 -14 -3145 l3 -3095 31 -65 c54 -113 150 -194 269 -224 53 -14 385 -16 3110 -16 3271 0 3092 -3 3194 49 102 52 186 166 211 284 7 36 10 524 8 1617 l-3 1565 -22 55 c-46 112 -143 205 -258 247 -47 17 -127 18 -1595 21 -1083 2 -1564 0 -1609 -8 -179 -31 -311 -165 -343 -348 -35 -204 92 -407 291 -466 49 -14 191 -16 1378 -16 l1323 0 0 -1080 0 -1080 -2575 0 -2575 0 0 2575 0 2575 2788 0 c1866 0 2808 4 2851 10 335 55 468 468 228 710 -29 28 -81 65 -117 83 l-65 32 -3095 2 c-2481 1 -3103 -1 -3135 -11z"
       id="path255"
       style="fill:#800080" />
    <path
       d="M32522 50629 c-147 -29 -275 -146 -316 -290 -15 -51 -16 -216 -13 -1755 3 -1684 3 -1700 24 -1834 40 -249 72 -384 135 -580 168 -520 447 -977 831 -1362 766 -769 1846 -1127 2924 -968 592 86 1155 331 1628 706 124 99 363 329 465 449 411 484 687 1081 779 1688 41 266 42 343 39 2023 l-3 1620 -38 76 c-162 328 -630 307 -770 -34 l-22 -53 -6 -1680 c-6 -1842 -1 -1708 -65 -1994 -163 -725 -668 -1372 -1341 -1714 -383 -195 -742 -281 -1173 -280 -373 0 -711 71 -1047 222 -743 332 -1301 1021 -1468 1814 -56 263 -55 239 -55 1969 0 1145 -3 1612 -11 1650 -48 226 -270 372 -497 327z"
       id="path257"
       style="fill:#800080" />
    <path
       d="M53463 43706 c-207 -47 -380 -222 -422 -424 -63 -305 129 -604 428 -668 288 -61 571 110 655 395 26 88 22 236 -9 328 -57 168 -182 295 -351 354 -77 27 -218 34 -301 15z"
       id="path259"
       style="fill:#800080" />
    <path
       d="M32532 41639 c-129 -22 -239 -105 -299 -227 l-38 -76 -3 -2843 -2 -2842 -423 -3 c-416 -3 -423 -3 -480 -26 -67 -28 -163 -112 -201 -177 -41 -68 -59 -157 -53 -249 13 -185 148 -338 333 -376 34 -7 268 -10 695 -8 l644 3 55 23 c116 49 203 140 246 257 18 48 19 137 22 2580 l2 2530 2663 -2661 c2924 -2924 2694 -2703 2846 -2727 186 -28 362 67 444 241 l32 67 3 2842 2 2842 443 3 442 3 58 27 c84 39 167 123 206 206 118 256 -37 547 -315 592 -77 13 -1241 13 -1318 0 -169 -27 -307 -156 -345 -321 -7 -29 -11 -901 -11 -2559 l0 -2515 -2672 2671 c-2407 2405 -2678 2673 -2726 2693 -50 21 -148 42 -182 40 -8 -1 -39 -5 -68 -10z"
       id="path261"
       style="fill:#800080" />
    <path
       d="M44504 41635 c-34 -7 -81 -23 -104 -35 -69 -35 -147 -116 -183 -189 l-32 -66 0 -2520 0 -2520 23 -107 c152 -708 691 -1232 1396 -1361 l121 -22 2470 0 c2090 0 2477 2 2518 14 114 33 223 135 268 248 18 46 23 79 23 158 1 92 -1 105 -31 167 -54 115 -150 199 -262 232 -49 14 -292 16 -2457 16 -2121 0 -2412 2 -2490 15 -183 32 -327 103 -456 224 -135 127 -221 270 -264 439 l-24 95 0 693 0 694 2838 2 2837 3 67 32 c164 77 260 239 245 412 -14 166 -112 301 -265 363 l-57 23 -2832 3 -2833 2 0 1080 0 1080 2843 2 2842 3 66 32 c158 78 251 240 236 413 -14 168 -111 296 -276 362 l-56 23 -3055 2 c-2516 1 -3066 -1 -3116 -12z"
       id="path263"
       style="fill:#800080" />
    <path
       d="M47728 28719 c-398 -42 -672 -262 -791 -634 -47 -144 -62 -419 -32 -587 54 -311 211 -546 445 -667 161 -83 315 -114 565 -114 287 0 451 34 660 137 72 35 167 88 212 118 l83 53 0 418 0 417 -465 0 -465 0 0 -205 0 -205 200 0 201 0 -3 -87 -3 -88 -94 -47 c-109 -54 -200 -78 -298 -78 -216 0 -360 109 -418 316 -26 92 -32 349 -11 455 39 196 132 309 290 354 82 24 212 17 284 -15 59 -26 134 -101 154 -156 6 -19 19 -34 28 -34 30 0 561 98 568 104 10 10 -35 132 -75 206 -21 38 -68 97 -112 140 -126 125 -253 178 -482 199 -129 12 -327 12 -441 0z"
       id="path265"
       style="fill:#800080" />
    <path
       d="M29330 27725 l0 -975 250 0 250 0 2 710 3 709 180 -707 181 -707 229 0 229 0 181 706 180 706 3 -708 2 -709 250 0 250 0 0 975 0 975 -398 0 -397 0 -98 -382 c-54 -211 -121 -473 -149 -582 l-52 -199 -78 304 c-43 167 -110 429 -150 582 l-71 277 -398 0 -399 0 0 -975z"
       id="path267"
       style="fill:#800080" />
    <path
       d="M32419 28673 c-63 -165 -719 -1913 -719 -1918 0 -3 140 -4 311 -3 l312 3 46 157 46 158 335 0 335 0 18 -63 c10 -34 32 -106 48 -159 l31 -98 320 0 c301 0 320 1 313 18 -3 9 -165 440 -360 957 -194 517 -356 948 -360 958 -7 16 -32 17 -336 17 l-329 0 -11 -27z m531 -1160 c0 -10 -47 -13 -201 -13 -186 0 -200 1 -195 18 3 9 46 152 96 317 50 165 93 307 96 315 5 13 203 -606 204 -637z"
       id="path269"
       style="fill:#800080" />
    <path
       d="M34000 27725 l0 -975 290 0 290 0 0 521 0 522 354 -519 353 -519 292 -3 291 -2 0 975 0 975 -290 0 -290 0 -2 -525 -3 -526 -356 523 -356 523 -286 3 -287 2 0 -975z"
       id="path271"
       style="fill:#800080" />
    <path
       d="M36263 28033 l3 -668 26 -94 c15 -51 40 -121 57 -155 57 -117 186 -247 302 -306 187 -96 656 -126 916 -59 286 73 480 285 539 587 11 59 14 204 14 718 l0 644 -300 0 -299 0 -3 -642 -3 -643 -29 -63 c-35 -75 -87 -123 -165 -153 -74 -28 -212 -24 -283 8 -62 28 -122 93 -150 161 -23 57 -23 57 -26 695 l-3 637 -300 0 -300 0 4 -667z"
       id="path273"
       style="fill:#800080" />
    <path
       d="M38510 27725 l0 -975 820 0 820 0 0 225 0 225 -515 0 -515 0 0 185 0 185 465 0 465 0 0 200 0 200 -465 0 -465 0 0 150 0 150 505 0 505 0 0 215 0 215 -810 0 -810 0 0 -975z"
       id="path275"
       style="fill:#800080" />
    <path
       d="M40470 27725 l0 -975 770 0 770 0 0 240 0 240 -465 0 -465 0 0 735 0 735 -305 0 -305 0 0 -975z"
       id="path277"
       style="fill:#800080" />
    <path
       d="M43170 27725 l0 -975 310 0 310 0 0 360 0 360 228 0 c246 0 317 8 432 46 178 60 295 181 352 364 19 63 23 97 23 210 0 201 -39 322 -135 425 -100 104 -217 156 -399 174 -58 6 -325 11 -612 11 l-509 0 0 -975z m899 554 c104 -22 164 -95 164 -198 0 -66 -18 -106 -67 -149 -50 -43 -92 -54 -243 -59 l-133 -5 0 211 0 211 115 0 c62 0 137 -5 164 -11z"
       id="path279"
       style="fill:#800080" />
    <path
       d="M45429 28673 c-69 -179 -719 -1914 -719 -1918 0 -3 140 -4 312 -3 l311 3 46 157 46 158 335 0 335 0 18 -63 c10 -34 32 -106 48 -159 l31 -98 320 0 c301 0 320 1 313 18 -3 9 -165 440 -360 957 -194 517 -356 948 -360 958 -7 16 -32 17 -336 17 l-329 0 -11 -27z m531 -1160 c0 -10 -47 -13 -201 -13 -186 0 -200 1 -195 18 3 9 46 152 96 317 50 165 93 307 96 315 5 13 203 -607 204 -637z"
       id="path281"
       style="fill:#800080" />
    <path
       d="M49220 27725 l0 -975 770 0 770 0 0 240 0 240 -465 0 -465 0 0 735 0 735 -305 0 -305 0 0 -975z"
       id="path283"
       style="fill:#800080" />
    <path
       d="M51050 27725 l0 -975 305 0 305 0 0 975 0 975 -305 0 -305 0 0 -975z"
       id="path285"
       style="fill:#800080" />
    <path
       d="M52270 27788 c-189 -502 -354 -941 -366 -975 l-24 -63 313 0 313 0 28 98 c16 53 37 125 48 160 l19 62 333 0 334 0 25 -82 c14 -46 36 -118 48 -160 l23 -78 318 0 c175 0 318 3 318 8 0 4 -163 442 -362 974 l-363 968 -331 0 -331 0 -343 -912z m769 42 c55 -178 99 -326 97 -327 -2 -2 -93 -2 -202 -1 l-200 3 100 327 c55 181 101 326 103 325 1 -2 47 -149 102 -327z"
       id="path287"
       style="fill:#800080" />
  </g>
</svg>
